<?xml version="1.0" encoding="UTF-8" standalone="no"?>
<!-- Created with Inkscape (http://www.inkscape.org/) -->

<svg
   version="1.1"
   id="svg2"
   width="512"
   height="512"
   viewBox="0 0 512 512"
   sodipodi:docname="icono_baseDedatos.svg"
   xml:space="preserve"
   inkscape:version="1.2.2 (b0a8486541, 2022-12-01)"
   xmlns:inkscape="http://www.inkscape.org/namespaces/inkscape"
   xmlns:sodipodi="http://sodipodi.sourceforge.net/DTD/sodipodi-0.dtd"
   xmlns="http://www.w3.org/2000/svg"
   xmlns:svg="http://www.w3.org/2000/svg"><defs
     id="defs6" /><sodipodi:namedview
     id="namedview4"
     pagecolor="#505050"
     bordercolor="#ffffff"
     borderopacity="1"
     inkscape:showpageshadow="0"
     inkscape:pageopacity="0"
     inkscape:pagecheckerboard="1"
     inkscape:deskcolor="#505050"
     showgrid="false"
     inkscape:zoom="1"
     inkscape:cx="685.5"
     inkscape:cy="289.5"
     inkscape:window-width="2512"
     inkscape:window-height="1011"
     inkscape:window-x="0"
     inkscape:window-y="0"
     inkscape:window-maximized="1"
     inkscape:current-layer="g8" /><g
     inkscape:groupmode="layer"
     inkscape:label="Image"
     id="g8"><path
       style="fill:#000000;stroke-width:0.652229"
       d="m 322.94989,302.78084 c -5.01799,-4.65051 -1.07895,-12.21269 6.36142,-12.21269 1.29101,0 2.34729,-0.26371 2.34729,-0.58603 0,-0.32232 2.05568,-0.79248 4.56818,-1.0448 2.5125,-0.25232 4.7311,-0.72236 4.93022,-1.04454 1.19986,-1.94142 6.79161,0.76948 8.32517,4.03608 1.13059,2.40825 1.13492,2.66721 0.0842,5.0486 -1.26655,2.8707 -3.79281,4.45079 -8.12438,5.08153 -1.61427,0.23505 -3.2468,0.67101 -3.62786,0.96879 -0.38105,0.29778 -3.47871,0.73724 -6.88368,0.97659 -6.01175,0.42258 -6.24263,0.38719 -7.98061,-1.22353 z"
       id="path439" /><path
       style="fill:#000000;stroke-width:0.652229"
       d="m 381.18218,287.47284 c -1.89145,-1.15012 -3.86753,-4.23411 -3.86753,-6.0359 0,-2.79412 2.26114,-5.10814 7.80349,-7.986 3.06197,-1.58992 7.66865,-3.99703 10.23708,-5.34912 4.33408,-2.28158 4.83751,-2.40302 7.00127,-1.68892 4.15901,1.3726 6.26263,6.15485 4.31127,9.801 -0.67915,1.26899 -6.13741,5.22304 -7.21001,5.22304 -0.34074,0 -0.61953,0.27019 -0.61953,0.60041 0,0.33022 -0.88051,0.7938 -1.95669,1.03017 -1.07618,0.23636 -1.95669,0.69994 -1.95669,1.03016 0,0.33023 -0.30961,0.60041 -0.68801,0.60041 -0.70308,0 -5.90382,2.14965 -7.94518,3.28402 -1.54526,0.85869 -3.11747,0.70199 -5.10947,-0.50927 z"
       id="path441" /><path
       style="fill:#000000;stroke-width:0.652229"
       d="m 379.22575,366.83828 c -1.9888,-1.7756 -2.23721,-2.36291 -2.23721,-5.28932 0,-2.95755 0.22937,-3.48343 2.25816,-5.17714 1.24199,-1.03686 2.63613,-1.8852 3.09809,-1.8852 0.46196,0 0.83992,-0.26083 0.83992,-0.57964 0,-0.3188 1.0059,-0.76835 2.23534,-0.99899 1.22943,-0.23064 2.33007,-0.63019 2.44586,-0.88787 0.11579,-0.25769 1.62963,-1.20229 3.36409,-2.0991 1.73446,-0.89682 3.78898,-1.99313 4.5656,-2.43625 0.77663,-0.44312 1.90835,-0.80999 2.51495,-0.81528 0.6066,-0.005 1.29311,-0.31737 1.52558,-0.69352 0.26005,-0.42077 0.71402,-0.45537 1.1799,-0.0899 0.41647,0.32668 1.49393,0.7691 2.39436,0.98316 0.90043,0.21406 2.14782,1.2537 2.77198,2.31032 2.21407,3.74812 1.15022,7.49423 -2.82413,9.94454 -1.39054,0.85731 -2.53614,1.74705 -2.54579,1.97721 -0.01,0.23015 -0.82174,0.6203 -1.80464,0.867 -0.98291,0.24669 -1.93679,0.65018 -2.11975,0.89665 -0.45471,0.61257 -8.94758,4.66629 -9.77625,4.66629 -0.36627,0 -0.66595,0.2935 -0.66595,0.65223 0,0.35873 -1.12115,0.65223 -2.49145,0.65223 -1.8577,0 -3.06051,-0.50807 -4.72866,-1.99739 z"
       id="path443" /><path
       style="fill:#000000;stroke-width:0.652229"
       d="m 322.8535,382.81656 c -1.64709,-1.53917 -1.95668,-2.32262 -1.95668,-4.95154 0,-2.31618 0.35864,-3.4817 1.38815,-4.5112 1.45299,-1.453 9.0249,-3.86592 12.13149,-3.86592 0.99426,0 1.80774,-0.25169 1.80774,-0.55932 0,-0.30762 1.79258,-0.74667 3.9835,-0.97567 5.12464,-0.53563 7.80331,0.63145 9.35693,4.07676 1.05989,2.35042 1.0559,2.59745 -0.081,5.01186 -1.3074,2.7766 -2.78701,3.71094 -7.72238,4.8765 -1.78986,0.4227 -3.7692,1.03067 -4.39855,1.35105 -0.62935,0.32037 -3.71113,0.76102 -6.84841,0.97923 -5.59306,0.38901 -5.74224,0.36113 -7.66083,-1.43175 z"
       id="path445" /><path
       style="fill:#0074ff;fill-opacity:1;stroke-width:0.922392"
       d="m 235.67103,222.33855 c -31.06604,-6.11669 -59.04172,-27.70023 -73.27118,-56.52953 -7.35335,-14.8981 -10.20805,-27.56912 -10.19828,-45.26663 0.008,-14.73438 0.91488,-21.220087 4.52299,-32.351741 5.43673,-16.773255 14.04541,-30.567135 26.67524,-42.742331 11.26273,-10.857301 19.65366,-16.194153 37.51297,-23.859224 7.02086,-3.013299 16.57868,-4.688785 29.51653,-5.17425 16.55363,-0.621139 25.56918,0.439727 37.40127,4.401034 16.65085,5.574598 27.92985,12.365623 40.38957,24.318363 15.32477,14.701214 25.10501,32.150428 29.72286,53.029406 2.23232,10.093203 2.45432,32.764203 0.41572,42.455383 -3.65963,17.39725 -12.56334,35.17031 -24.09709,48.10117 -13.39644,15.01915 -28.26101,24.5611 -48.78145,31.31404 -8.89419,2.92692 -9.83392,3.04509 -26.28816,3.30552 -11.77337,0.18634 -19.0662,-0.12409 -23.52099,-1.00121 z m 31.57868,-31.9582 c 9.62006,-2.22388 12.14775,-3.16121 21.73965,-8.06166 8.8401,-4.51636 10.8982,-6.06672 18.21861,-13.724 6.95896,-7.27921 8.96179,-10.10893 12.77598,-18.05063 2.4878,-5.17999 4.79524,-10.66339 5.12765,-12.18533 0.33242,-1.52195 0.83389,-3.90864 1.11439,-5.30375 0.28049,-1.39512 0.65198,-2.53658 0.82553,-2.53658 0.17355,0 1.84467,1.03769 3.7136,2.30598 4.47213,3.03487 8.00075,2.99288 10.4528,-0.12439 3.79195,-4.82069 2.84242,-6.9324 -8.06679,-17.94002 -12.77698,-12.89225 -12.88763,-12.90607 -23.37873,-2.92 -12.82116,12.20395 -15.18139,17.00666 -10.51303,21.39236 2.26292,2.1259 5.88904,2.32819 9.97239,0.55631 2.51818,-1.0927 2.02329,0.87293 -2.64941,10.52309 -6.78839,14.01957 -17.18329,23.21081 -33.55446,29.66909 -2.23851,0.88307 -7.47064,1.27357 -17.06424,1.27357 -13.19116,0 -14.13608,-0.12518 -20.27837,-2.68643 -3.54337,-1.47754 -8.62264,-4.08106 -11.28728,-5.78561 -6.43366,-4.11556 -9.36607,-4.64636 -12.00619,-2.17325 -7.77981,7.28766 -0.69781,14.32021 24.20162,24.03262 6.47607,2.52609 23.15736,3.47214 30.65628,1.73863 z m -72.80989,-39.96487 c 1.36992,-0.72486 6.34279,-5.20735 11.05083,-9.96109 6.61025,-6.67444 8.67849,-9.37304 9.08004,-11.84746 1.11564,-6.87488 -6.78502,-10.46622 -12.08053,-5.49136 l -2.3312,2.19005 v -6.49163 c 0,-8.47478 1.24384,-14.76492 4.20859,-21.282884 4.53065,-9.960607 8.67333,-15.211127 17.87583,-22.656225 3.07813,-2.4903 10.03292,-6.240393 15.27244,-8.235052 5.79473,-2.206026 22.62839,-3.160108 30.43892,-1.725186 7.80229,1.433409 19.27898,7.452458 26.59837,13.949747 5.56068,4.936109 6.66267,5.534434 10.19332,5.534434 3.34691,0 4.12403,-0.363035 5.02906,-2.34938 2.40439,-5.277048 1.50002,-7.625324 -5.51141,-14.310843 -8.44223,-8.049802 -21.40446,-15.187412 -31.99078,-17.615608 -7.96271,-1.826415 -24.43802,-2.010499 -31.07042,-0.347158 -6.59777,1.65466 -16.25862,5.554164 -22.39396,9.039103 -10.20414,5.796056 -21.67643,18.61739 -27.31115,30.522704 -4.23472,8.947325 -7.94186,24.072918 -7.94186,32.403748 v 3.56423 l -2.07538,-1.93719 c -3.15087,-2.94108 -6.23159,-3.31809 -9.68511,-1.18526 -2.52745,1.56091 -2.99777,2.39876 -2.99777,5.34038 0,3.20356 0.7735,4.25202 9.45451,12.81538 7.96441,7.85646 11.93009,11.21519 13.42048,11.36643 0.15203,0.0154 1.39726,-0.56502 2.76718,-1.28988 z"
       id="path1029" /><path
       style="fill:#ffffff;fill-opacity:1;stroke-width:0.922392"
       d="m 186.63651,147.26719 c -2.4553,-1.94911 -7.26595,-6.52273 -10.69033,-10.1636 -6.76565,-7.19339 -7.81431,-10.39635 -4.41192,-13.47547 2.41855,-2.18875 5.73481,-2.07269 9.09256,0.31824 1.51397,1.07805 2.94414,1.96008 3.17814,1.96008 0.23401,0 0.68466,-2.80176 1.00146,-6.22614 1.79187,-19.36913 6.16062,-30.916853 16.66287,-44.044195 9.9457,-12.431685 23.40431,-20.789272 40.19729,-24.961896 6.22573,-1.546935 21.47835,-1.698869 27.42791,-0.273215 13.38926,3.208379 24.78521,9.170113 34.21189,17.897769 5.56562,5.152913 6.61717,6.597776 6.61717,9.092195 0,4.18575 -1.89477,6.391019 -5.4054,6.291203 -2.18121,-0.06202 -4.63538,-1.558191 -9.76751,-5.954706 -6.64451,-5.692128 -14.58813,-10.285963 -22.18395,-12.829098 -5.97962,-2.002021 -28.27116,-1.669101 -34.58968,0.516592 -18.15156,6.278955 -32.55869,21.744708 -37.413,40.162071 -1.33193,5.05337 -1.84045,18.58656 -0.73977,19.68724 0.32323,0.32322 1.80916,-0.2821 3.30209,-1.34515 3.32194,-2.36543 6.64407,-2.4722 9.05428,-0.29099 3.84409,3.47886 1.94884,7.41077 -8.49616,17.62619 -6.66339,6.51695 -10.52634,9.5567 -12.14474,9.5567 -0.24146,0 -2.44789,-1.59472 -4.9032,-3.54382 z"
       id="path1031" /><path
       style="fill:#ffffff;fill-opacity:1;stroke-width:0.922392"
       d="m 242.58897,189.12609 c -13.13526,-3.07187 -29.46046,-11.58863 -31.45818,-16.41155 -1.3435,-3.24348 -0.18701,-6.18795 3.12702,-7.96157 2.18244,-1.168 2.92218,-0.92927 10.49697,3.38766 11.90697,6.78586 17.91954,8.49735 29.85172,8.49735 12.45707,0 17.7748,-1.0162 26.17323,-5.0016 8.42709,-3.999 16.56508,-10.75217 21.59071,-17.9167 3.89192,-5.54831 9.39789,-17.22029 9.39789,-19.92235 0,-1.58523 -3.2404,-1.98474 -4.15076,-0.51176 -0.98101,1.58732 -5.91057,1.00737 -7.84033,-0.92239 -3.72599,-3.72599 -2.58528,-6.08519 8.11705,-16.78752 7.13316,-7.13316 10.59042,-9.96183 12.17557,-9.96183 1.58515,0 5.04241,2.82867 12.17557,9.96183 10.77012,10.77012 11.87113,13.09209 7.94311,16.75159 -2.69282,2.50875 -5.55792,2.37157 -8.88177,-0.42526 -4.17062,-3.50934 -5.16534,-3.01223 -6.56101,3.27884 -0.68145,3.07165 -3.48845,10.15726 -6.2378,15.74581 -4.29665,8.73373 -6.07566,11.23786 -12.66519,17.82738 -4.21651,4.21651 -8.68105,8.23418 -9.92121,8.92816 -7.31581,4.09385 -17.95257,9.1021 -19.33147,9.1021 -0.8847,0 -1.83798,0.37123 -2.11839,0.82496 -1.34587,2.17766 -24.37267,3.27318 -31.88273,1.51685 z"
       id="path1033" /><path
       style="fill:#ffffff;fill-opacity:1;stroke-width:0.922392"
       d="m 213.53364,334.36693 c -1.52195,-0.38727 -4.61003,-0.75324 -6.86241,-0.81327 -2.25239,-0.06 -6.61069,-0.55625 -9.68511,-1.10275 -12.85795,-2.28557 -15.04974,-2.68736 -19.88695,-3.64559 -6.90092,-1.36703 -19.41755,-4.50247 -21.6762,-5.42992 -1.01463,-0.41663 -4.75032,-1.67466 -8.30152,-2.79562 -22.223,-7.0148 -40.6432,-18.46828 -48.290414,-30.02645 l -2.441122,-3.68957 -0.294601,-26.60913 c -0.162031,-14.63503 -0.05799,-27.22575 0.231206,-27.97937 0.415029,-1.08155 1.320062,-0.72243 4.295701,1.70456 2.07344,1.69114 4.45301,3.48988 5.28793,3.99719 0.83491,0.50732 3.18518,1.98169 5.22281,3.27637 3.40673,2.16461 10.91583,5.89205 18.92424,9.39381 5.89829,2.57909 19.70582,7.00906 29.51653,9.47001 5.32681,1.3362 11.13788,2.80545 12.91348,3.26502 19.59659,5.07199 66.5705,8.88892 96.38992,7.83229 25.79003,-0.91384 60.24334,-4.73565 71.02415,-7.87849 1.52194,-0.44368 7.33301,-1.9326 12.91348,-3.30871 8.99741,-2.21871 24.38425,-7.18918 29.51653,-9.53484 9.39095,-4.29205 15.34404,-7.26987 18.44783,-9.22785 2.02926,-1.28014 4.38555,-2.75108 5.23621,-3.26876 0.85065,-0.51768 3.23707,-2.3249 5.30314,-4.01604 2.91276,-2.38417 3.87205,-2.77366 4.27098,-1.73407 0.28297,0.7374 0.38702,13.32812 0.23121,27.97937 l -0.28328,26.63864 -2.41349,3.70686 c -2.56669,3.94214 -12.28962,13.36997 -15.8621,15.38066 -3.91302,2.20235 -20.52335,10.4122 -23.28245,11.50762 -19.18148,7.61544 -40.35256,12.45826 -73.7409,16.86801 -8.38962,1.10806 -82.37328,1.1422 -86.7048,0.04 z m 46.91757,-24.97152 c 2.95948,-2.32793 3.41297,-8.02715 0.81619,-10.2574 -2.87656,-2.47053 -5.00648,-2.76473 -25.59637,-3.53551 -27.09698,-1.01437 -55.49433,-5.15353 -78.07886,-11.38067 -6.59902,-1.81952 -26.00025,-8.92124 -26.61257,-9.74139 -0.72802,-0.97511 -10.22008,-4.68092 -11.9897,-4.68092 -0.87857,0 -2.69106,0.86028 -4.02776,1.91173 -1.84554,1.4517 -2.42698,2.72798 -2.41625,5.30375 0.008,1.86561 0.33163,3.89155 0.7197,4.50208 1.02949,1.61968 20.79019,10.85281 28.32151,13.23314 3.55121,1.12239 7.28689,2.36732 8.30152,2.76651 5.32054,2.09328 25.73942,6.48531 42.20338,9.0778 22.78603,3.588 31.63526,4.38665 50.60317,4.56694 14.22972,0.13525 15.49947,0.009 17.75604,-1.76606 z m 73.5649,-5.40482 c 12.41528,-2.03378 16.49267,-4.38299 16.49267,-9.50235 0,-4.19771 -4.75548,-8.08898 -8.76272,-7.17027 -0.50732,0.1163 -4.65808,0.99386 -9.22392,1.95012 -6.44809,1.35048 -8.76487,2.26586 -10.3769,4.09996 -2.70057,3.07263 -2.63253,6.3971 0.18867,9.2183 2.48607,2.48607 3.98107,2.66577 11.6822,1.40424 z m 60.17648,-18.99827 c 9.4417,-4.54239 13.50446,-8.11367 13.50446,-11.8708 0,-3.02166 -2.4387,-6.13441 -5.7067,-7.28401 -1.73212,-0.60932 -16.96454,6.45475 -21.73445,10.07941 -4.15206,3.15515 -4.18549,7.47746 -0.0846,10.92819 3.42301,2.88027 4.47111,2.74177 14.02124,-1.85279 z"
       id="path1035" /><path
       style="fill:#ffffff;fill-opacity:1;stroke-width:0.922392"
       d="m 222.75755,495.21645 c -23.86343,-1.77775 -41.07887,-4.80867 -67.33458,-11.85484 -23.86989,-6.40589 -47.27614,-19.64372 -55.34349,-31.30051 l -3.689566,-5.33119 -0.281139,-27.58735 c -0.198551,-19.48327 0.0145,-27.58736 0.725238,-27.58736 0.553507,0 3.712687,2.07428 7.020407,4.6095 3.30771,2.53523 8.34684,5.7131 11.19806,7.06194 4.72028,2.23305 5.39435,2.33439 7.53515,1.13279 1.29311,-0.7258 2.97022,-2.42265 3.7269,-3.77078 2.39901,-4.27413 0.57469,-6.96027 -9.01381,-13.27206 -9.90867,-6.52255 -14.9189,-11.13999 -18.420515,-16.97639 l -2.490291,-4.15077 -0.284025,-26.1755 c -0.156214,-14.39652 -0.06812,-26.73814 0.195769,-27.42582 0.342461,-0.89244 2.931935,0.40962 9.046742,4.54897 22.93011,15.52226 51.25101,24.65044 96.19415,31.00456 29.61935,4.18763 96.39821,3.18898 122.21687,-1.82769 2.79024,-0.54216 7.35608,-1.41036 10.14631,-1.92935 29.81622,-5.54581 53.92776,-14.52905 72.14079,-26.87748 4.89106,-3.31614 9.13116,-5.79102 9.42245,-5.49973 0.29128,0.29128 0.52961,12.51417 0.52961,27.16197 0,24.83925 -0.12459,26.87658 -1.85045,30.25954 -9.19103,18.01591 -47.95837,35.05608 -95.46186,41.96021 -5.58047,0.81106 -12.42923,1.93236 -15.21946,2.49177 -7.50484,1.50465 -74.74686,2.09054 -86.73054,0.7557 -20.70213,-2.30597 -18.96549,-2.32922 -21.58371,0.289 -1.63776,1.63776 -2.37273,3.36499 -2.37273,5.57608 0,6.07581 4.20426,7.58374 27.21055,9.75949 13.19106,1.24749 58.0106,1.2359 71.02414,-0.0184 29.29318,-2.82337 51.27542,-6.58366 70.56296,-12.07056 1.7756,-0.50512 4.16842,-1.14662 5.31738,-1.42556 1.14896,-0.27893 2.31491,-0.87266 2.59101,-1.31941 0.27611,-0.44674 1.20845,-0.81225 2.07187,-0.81225 2.32228,0 19.37183,-7.42254 26.12401,-11.37312 3.2255,-1.88718 8.34683,-5.28871 11.38075,-7.55895 3.0339,-2.27027 5.85841,-4.12774 6.27668,-4.12774 0.41826,0 0.63397,12.34852 0.47934,27.44115 l -0.28114,27.44115 -2.45233,4.15076 c -2.51654,4.25945 -8.99366,10.30092 -16.6188,15.50098 -11.38196,7.76209 -36.55384,17.46177 -55.64258,21.4412 -2.02926,0.42304 -5.76495,1.22438 -8.30153,1.78075 -2.53657,0.55637 -11.25317,2.07076 -19.37022,3.36529 -13.65345,2.1775 -17.41672,2.37353 -50.27034,2.61862 -19.53164,0.14571 -37.58745,0.11032 -40.12403,-0.0787 z m 35.39391,-24.4326 c 4.39173,-1.53096 6.15281,-6.58986 3.81482,-10.95845 -1.48509,-2.7749 -5.9552,-3.54538 -23.98927,-4.1348 -19.9836,-0.65314 -34.02201,-2.05091 -52.11512,-5.18897 -13.44534,-2.33197 -34.56524,-7.79368 -42.43001,-10.97263 -1.01463,-0.41011 -3.29755,-1.27611 -5.07315,-1.92446 -1.77561,-0.64834 -6.13391,-2.51717 -9.68511,-4.15296 -8.93548,-4.11593 -11.27751,-4.33071 -14.29707,-1.31115 -2.39488,2.39488 -2.50159,8.34359 -0.18724,10.43805 4.43268,4.01152 32.80562,14.64812 49.53518,18.57001 24.83779,5.8227 42.51306,8.14715 73.62024,9.6817 7.70382,0.38003 14.87894,0.75445 15.9447,0.83202 1.06575,0.0776 3.25366,-0.31768 4.86203,-0.87836 z m 76.10845,-6.42007 c 2.08812,-0.5405 5.96459,-1.5959 8.61438,-2.34531 7.35176,-2.07922 9.64084,-6.78598 5.72276,-11.76701 -1.54931,-1.96962 -2.68343,-2.43038 -5.98231,-2.43038 -2.23882,0 -6.04815,0.478 -8.46518,1.06221 -2.41702,0.58422 -5.94835,1.42962 -7.8474,1.87867 -2.4279,0.57412 -3.86533,1.61422 -4.84255,3.50396 -1.98105,3.83091 -1.74737,5.33053 1.30647,8.38438 2.9386,2.93861 5.36399,3.30018 11.49383,1.71348 z m 59.67524,-19.19482 c 3.29434,-1.5565 7.73845,-4.32687 9.8758,-6.15637 3.13101,-2.68002 3.8861,-3.92666 3.8861,-6.41589 0,-3.57512 -3.43435,-6.91301 -7.11279,-6.91301 -2.78428,0 -19.5047,8.6481 -21.71194,11.22981 -2.36144,2.76205 -2.03834,6.87772 0.75956,9.67562 2.92215,2.92215 5.69555,2.64678 14.30327,-1.42016 z M 260.9428,389.33429 c 2.53946,-2.29818 2.64383,-8.14274 0.18926,-10.59732 -1.40975,-1.40974 -3.60425,-1.84929 -11.2993,-2.26321 -33.24955,-1.78851 -43.36613,-2.64391 -56.13054,-4.74607 -7.86339,-1.29501 -16.99506,-2.99494 -20.29261,-3.77763 -3.29755,-0.78269 -7.65585,-1.77854 -9.68512,-2.21299 -7.43216,-1.59121 -22.39204,-6.79893 -32.13579,-11.18687 -5.49911,-2.47644 -10.9429,-4.50262 -12.09729,-4.50262 -6.5914,0 -9.60521,9.05928 -4.27618,12.85388 9.86544,7.02481 36.759,16.11835 64.18992,21.70457 19.07316,3.8842 51.64349,6.83467 72.54433,6.57162 5.55454,-0.0699 7.46678,-0.46186 8.99332,-1.84336 z m 80.26286,-6.70837 c 8.57248,-2.46491 11.47816,-7.42704 7.39139,-12.62253 -1.57096,-1.99715 -2.66911,-2.43037 -6.16066,-2.43037 -2.3369,0 -5.52362,0.38266 -7.08158,0.85036 -1.55797,0.46771 -5.24019,1.53317 -8.18271,2.36771 -4.21356,1.19502 -5.54426,2.02812 -6.26424,3.92184 -1.22453,3.22075 -0.22236,7.28876 2.23281,9.06339 2.33787,1.68985 9.85109,1.21139 18.06499,-1.1504 z m 52.22477,-17.30277 c 13.51387,-6.57411 17.12252,-11.54431 12.51402,-17.23556 -2.7083,-3.34462 -7.35023,-2.68801 -17.15642,2.42682 -10.12012,5.27856 -12.45229,7.30757 -12.45229,10.83361 0,3.04164 4.38342,8.06978 7.03504,8.06978 0.90343,0 5.43028,-1.84259 10.05965,-4.09465 z"
       id="path1037" /><path
       style="fill:#96a1c3;fill-opacity:1;stroke-width:0.922392"
       d="m 83.189164,148.00791 c -1.693426,-1.57767 -2.01871,-2.88886 -2.01871,-8.13721 0,-11.29933 4.413822,-19.34227 13.003339,-23.6949 4.766424,-2.41533 13.771107,-3.83954 17.831897,-2.82035 3.45324,0.86671 6.06042,3.82376 6.06042,6.87368 0,4.25131 -2.72178,5.86582 -11.1359,6.60561 -10.010231,0.88013 -11.175135,2.04554 -12.033966,12.03923 -0.437861,5.09512 -1.150171,8.01436 -2.252859,9.23281 -2.131317,2.35508 -6.873444,2.30549 -9.454221,-0.0989 z"
       id="path1538" /><path
       style="fill:#96a1c3;fill-opacity:1;stroke-width:0.922392"
       d="m 419.02664,147.40638 c -1.05837,-1.61527 -1.74411,-4.81267 -1.96337,-9.15455 -0.4586,-9.08172 -1.9964,-10.53172 -12.11276,-11.42118 -8.29785,-0.72957 -11.08933,-2.36003 -11.08933,-6.47712 0,-1.37491 0.90464,-3.64989 2.01031,-5.05552 1.97944,-2.51645 2.12713,-2.54745 9.61779,-2.01883 16.69,1.17783 25.20395,10.00638 25.2473,26.18023 0.0182,6.77627 -0.19164,7.70585 -2.02976,8.99332 -3.33245,2.33414 -7.78021,1.85338 -9.68018,-1.04635 z"
       id="path1540" /><path
       style="fill:#033c59;fill-opacity:1;stroke-width:0.922392"
       d="m 231.52027,509.99819 c -2.28292,-0.19352 -9.54675,-0.79189 -16.14185,-1.3297 -30.46209,-2.4841 -52.9833,-7.16056 -78.40328,-16.28019 C 117.55511,485.42119 104.22152,477.35708 93.793833,466.27239 83.68526,455.52692 82.772329,453.1761 81.973594,435.8351 81.145488,417.85646 81.120495,223.59889 81.943806,204.30972 c 0.572151,-13.40481 0.780867,-14.63383 3.344363,-19.69317 4.754235,-9.38299 18.348781,-21.48068 31.855551,-28.34802 2.28292,-1.16073 8.29685,-3.83461 13.3643,-5.94198 l 9.21353,-3.83159 -0.28952,-3.60692 c -0.15924,-1.98381 -0.66326,-5.26723 -1.12006,-7.29649 -1.27232,-5.65215 -1.01947,-24.80066 0.4568,-34.59352 3.7109,-24.616258 15.43229,-47.491157 33.24636,-64.881974 26.78317,-26.146806 61.77596,-38.255312 97.78439,-33.8361993 10.52892,1.292155 18.45791,3.2340688 27.21055,6.6642178 33.35735,13.0727115 58.66078,39.2573555 70.03668,72.4757585 4.456,13.011825 5.60028,20.668267 5.59246,37.419217 -0.0104,22.28071 -1.93187,31.45631 -10.36517,49.4974 -6.26763,13.40814 -13.46514,23.72683 -23.76921,34.07666 -32.0135,32.15567 -77.47317,43.12343 -119.89804,28.92701 -31.01793,-10.37938 -57.60136,-34.31597 -70.66133,-63.62579 l -3.43367,-7.70602 -3.30117,0.6193 c -4.5166,0.84732 -18.75678,7.60285 -26.47369,12.5591 -8.45668,5.43137 -17.480315,15.12741 -18.872608,20.27893 -1.51221,5.59521 -0.534887,12.72135 2.441145,17.79957 3.544463,6.04817 14.263383,14.80545 24.962353,20.39408 21.06727,11.00454 42.99234,16.9594 86.57625,23.51416 4.85373,0.72997 20.63751,1.10992 46.11958,1.11019 46.32433,4.9e-4 58.55078,-1.28354 91.46501,-9.60578 27.82787,-7.03618 46.7244,-15.78229 59.62994,-27.59923 7.49296,-6.86091 9.35318,-10.73313 9.37979,-19.52488 0.0205,-6.74913 -0.14267,-7.30062 -3.68227,-12.45031 -3.50038,-5.09263 -6.4036,-7.56152 -20.68101,-17.58713 -6.23839,-4.38059 -7.60192,-7.22464 -5.21228,-10.87169 1.18208,-1.80408 2.28592,-2.29926 5.12552,-2.29926 4.97235,0 20.70152,10.48794 27.56669,18.38102 7.69163,8.84326 9.44518,12.84069 10.3472,23.5878 0.97025,11.55989 1.00073,223.32448 0.0346,240.44111 -0.68459,12.12902 -0.83218,12.81208 -3.86605,17.8933 -15.60886,26.1422 -60.26676,44.81947 -123.52636,51.66242 -11.69839,1.26544 -61.92432,2.45856 -71.02415,1.68718 z m 81.63165,-16.40648 c 8.11705,-1.2906 16.83365,-2.80176 19.37022,-3.35812 2.53658,-0.55638 6.27227,-1.35863 8.30153,-1.78279 15.74465,-3.29096 31.46296,-8.63027 44.27479,-15.03958 11.05114,-5.52849 15.89699,-8.74972 22.46367,-14.93247 8.95186,-8.42846 8.85563,-8.01947 9.17942,-39.01165 0.15497,-14.83373 -0.0727,-27.60379 -0.50592,-28.37793 -0.6558,-1.17185 -1.62967,-0.7746 -5.81612,2.37245 -10.47334,7.87302 -34.33008,20.23098 -39.05545,20.23098 -0.75691,0 -1.60208,0.36551 -1.87819,0.81226 -0.2761,0.44674 -1.44205,1.02768 -2.59101,1.29098 -1.14896,0.26331 -6.23978,1.59593 -11.31293,2.96141 -17.02593,4.58263 -36.46921,7.8633 -59.95545,10.11629 -26.1483,2.50836 -81.25843,1.43613 -95.00632,-1.84845 -3.64047,-0.86977 -6.91794,-3.92599 -6.91794,-6.45095 0,-1.11144 0.88869,-3.15058 1.97486,-4.53142 2.1983,-2.79469 0.11437,-2.74326 21.47603,-0.52993 13.30035,1.37809 78.26786,0.81102 86.7749,-0.7574 3.04389,-0.56121 10.93034,-1.86524 17.52543,-2.89786 11.39457,-1.7841 23.83787,-4.32878 30.90012,-6.31914 1.7756,-0.50043 5.57903,-1.55378 8.45206,-2.34079 8.02918,-2.19945 27.13205,-10.27857 34.12135,-14.43084 8.30179,-4.93199 16.98146,-13.08544 19.75359,-18.55596 2.21912,-4.37923 2.24027,-4.67348 2.22629,-30.97066 -0.007,-14.60218 -0.38686,-27.13828 -0.8424,-27.858 -0.66321,-1.0478 -2.45265,-0.20287 -8.97919,4.23973 -8.68247,5.91014 -17.87158,10.88841 -26.13756,14.16024 -2.79024,1.10441 -5.90331,2.36239 -6.91794,2.7955 -1.01463,0.4331 -7.24077,2.41761 -13.83587,4.41003 -11.48212,3.46882 -14.95041,4.32122 -26.28816,6.4608 -2.79023,0.52656 -7.35607,1.40096 -10.14631,1.94311 -25.85683,5.02409 -92.76062,6.03623 -122.13236,1.84765 -17.27726,-2.46383 -23.55097,-3.5897 -36.51898,-6.55366 -7.47454,-1.70837 -23.28696,-6.41701 -27.21055,-8.10279 -1.01463,-0.43593 -4.1277,-1.71733 -6.91793,-2.84756 -11.14582,-4.51476 -19.67658,-9.41346 -32.89436,-18.88925 -2.75926,-1.9781 -3.121578,1.70827 -2.86902,29.19062 0.225453,24.53308 0.417336,27.52916 1.865488,29.12796 0.887801,0.98017 1.614185,2.25927 1.614185,2.84244 0,1.80301 9.498637,10.66875 15.741887,14.69298 9.1838,5.91965 11.92986,8.44788 11.92986,10.98358 0,2.31444 -3.68581,6.78516 -5.59391,6.78516 -1.74921,0 -11.12711,-5.28974 -16.23038,-9.15498 -7.895516,-5.9801 -8.431915,-6.13166 -9.099856,-2.57122 -0.31474,1.67771 -0.435642,14.44542 -0.26867,28.37269 0.348274,29.04993 0.268016,28.7257 9.264086,37.42538 19.8421,19.18834 61.97035,32.62425 117.85745,37.58811 2.28292,0.20277 20.33873,0.24288 40.12403,0.0891 33.26312,-0.25848 37.08512,-0.45633 50.73153,-2.62609 z M 300.23844,335.2493 c 31.10124,-4.10768 45.05075,-7.05598 64.91239,-13.71954 19.07211,-6.39867 31.82607,-13.10569 41.40448,-21.77365 10.01453,-9.06263 9.85974,-8.4425 10.18498,-40.80449 0.32144,-31.98483 0.46966,-31.44288 -6.93218,-25.34753 -12.51843,10.30882 -34.76706,20.13408 -58.83814,25.98363 -4.56583,1.10956 -9.54675,2.38545 -11.06869,2.83531 -4.03985,1.19411 -31.36664,5.2125 -44.73599,6.57841 -16.92207,1.72887 -65.15721,1.45213 -82.55404,-0.47364 -15.61162,-1.72815 -36.42565,-4.88658 -40.58523,-6.15861 -1.52195,-0.46543 -8.3707,-2.31292 -15.21946,-4.10552 -22.38441,-5.85896 -43.64715,-15.41401 -54.58658,-24.53014 -2.373939,-1.97827 -4.752718,-3.59685 -5.286182,-3.59685 -1.810295,0 -2.058409,4.29887 -1.762137,30.53115 l 0.295861,26.19593 2.622723,4.3788 c 9.698725,16.19263 43.708305,32.20812 83.620885,39.37801 5.83413,1.04804 12.91541,2.31971 15.73618,2.82594 2.82077,0.50623 6.97153,0.96952 9.22392,1.02954 2.25238,0.06 5.34046,0.426 6.86241,0.81327 4.33152,1.10218 78.31518,1.06804 86.7048,-0.04 z M 276.71746,223.27024 c 30.33872,-6.57863 54.85661,-24.14029 70.25448,-50.32183 2.23772,-3.80486 4.61344,-8.3707 5.27938,-10.14631 0.66594,-1.7756 1.54009,-4.05852 1.94254,-5.07315 4.934,-12.43913 6.46125,-21.22919 6.46107,-37.18656 -2.1e-4,-17.31294 -1.35507,-24.882706 -7.12947,-39.833132 -3.41187,-8.833645 -5.3902,-12.473542 -11.78681,-21.686372 -15.69693,-22.607802 -42.97897,-39.39846 -69.91984,-43.031976 -11.03298,-1.488019 -32.50393,-0.505132 -41.91065,1.918564 -18.07288,4.656589 -35.29857,14.591356 -48.71688,28.097018 -13.73784,13.827265 -21.94362,28.383746 -27.6222,48.999835 -2.10078,7.626873 -2.94339,33.540793 -1.37655,42.334953 7.74863,43.49073 40.20311,77.05467 83.01731,85.8553 8.24898,1.69561 33.81838,1.74098 41.50762,0.0737 z"
       id="path1818" /><path
       style="fill:#0074ff;fill-opacity:1;stroke-width:0.922392"
       d="m 227.36951,309.88591 c -0.50732,-0.19426 -5.90331,-0.76317 -11.99109,-1.26424 -33.1912,-2.73191 -70.8142,-11.95881 -92.01843,-22.56716 -8.93183,-4.46854 -9.46074,-4.89334 -9.7412,-7.8238 -0.21513,-2.24781 0.29032,-3.72341 1.84072,-5.37374 2.5582,-2.72307 4.24267,-2.5305 12.89477,1.47417 7.35394,3.4038 24.57687,9.7515 30.29706,11.16631 2.28292,0.56465 5.81107,1.43707 7.84033,1.93871 18.77568,4.64138 45.95319,8.2038 68.71817,9.00757 24.14842,0.8526 26.74935,1.53779 26.74935,7.04677 0,1.97483 -0.70797,3.91265 -1.84478,5.04946 -1.7001,1.7001 -3.02038,1.83908 -16.83365,1.77197 -8.24387,-0.0401 -15.40393,-0.23176 -15.91125,-0.42602 z"
       id="path2104" /><path
       style="fill:#0074ff;fill-opacity:1;stroke-width:0.163057"
       d="m 325.00188,304.001 c -0.52959,-0.12593 -0.99882,-0.44664 -1.88479,-1.28822 -1.3361,-1.26916 -1.97427,-2.36849 -2.23534,-3.85062 -0.73181,-4.15451 3.36819,-8.19543 8.33099,-8.21098 1.20855,-0.004 2.27518,-0.25486 2.52312,-0.59393 0.25016,-0.34213 1.65905,-0.66996 4.40802,-1.02569 3.35834,-0.43459 4.68263,-0.75477 5.23351,-1.26531 0.41286,-0.38262 0.54107,-0.41078 1.54383,-0.33903 1.496,0.10704 3.21132,0.96526 4.71882,2.36098 0.90285,0.83591 1.28184,1.34351 1.83196,2.4537 0.95118,1.91956 0.95204,2.68007 0.005,4.65072 -1.49432,3.11028 -3.49836,4.29034 -8.93203,5.25955 -0.80713,0.14397 -1.90777,0.43522 -2.44586,0.64723 -1.22059,0.48091 -2.2646,0.66504 -5.46242,0.96343 -3.59723,0.33565 -6.80434,0.4357 -7.63506,0.23817 z"
       id="path2106" /><path
       style="fill:#0074ff;fill-opacity:1;stroke-width:0.163057"
       d="m 382.61401,288.0886 c -1.87626,-0.7522 -3.50652,-2.3687 -4.58811,-4.5494 -0.47427,-0.95625 -0.57394,-1.33537 -0.56996,-2.16813 0.0115,-2.40331 1.9028,-4.55414 6.13642,-6.97847 3.07839,-1.7628 13.87311,-7.2543 15.16433,-7.71441 1.67032,-0.5952 2.24434,-0.62302 3.5544,-0.1723 3.12825,1.07628 5.24209,4.18537 4.95269,7.28455 -0.14242,1.52515 -0.64569,2.54076 -1.75771,3.54707 -1.83172,1.65762 -4.93686,3.72742 -6.03586,4.02335 -0.4179,0.11253 -0.6261,0.27498 -0.69275,0.54055 -0.10631,0.42359 -0.70358,0.73161 -2.43732,1.25695 -0.91704,0.27788 -1.16796,0.43167 -1.43064,0.87689 -0.23023,0.3902 -0.4692,0.56435 -0.86186,0.62807 -0.79285,0.12866 -3.96122,1.39694 -6.57097,2.63032 -2.02505,0.95705 -2.37587,1.07233 -3.24066,1.06484 -0.53337,-0.005 -1.26327,-0.12607 -1.622,-0.26988 z"
       id="path2108" /><path
       style="fill:#0074ff;fill-opacity:1;stroke-width:0.922392"
       d="m 230.59788,389.66705 c -24.83291,-1.21501 -46.41724,-4.38921 -68.71817,-10.10571 -20.85984,-5.34709 -39.5045,-12.48404 -46.03673,-17.62229 -2.98044,-2.34442 -3.1782,-6.49013 -0.4402,-9.22813 2.53942,-2.53942 6.1683,-1.97777 14.43746,2.23453 9.938,5.06241 23.3425,9.27688 47.25893,14.85854 13.12031,3.06204 38.72514,6.01399 59.81757,6.89629 23.82911,0.99677 25.05598,1.33632 25.02833,6.92695 -0.018,3.64142 -0.79184,4.81149 -3.98486,6.02548 -2.74745,1.04458 -6.2681,1.04643 -27.36233,0.0143 z"
       id="path2110" /><path
       style="fill:#0074ff;fill-opacity:1;stroke-width:0.922392"
       d="m 322.98457,381.84815 c -2.19285,-2.78776 -2.44259,-4.33116 -1.10518,-6.83013 1.03009,-1.92474 3.76303,-3.09616 11.87024,-5.08796 7.92666,-1.94744 11.74636,-1.83547 13.99197,0.41014 5.74041,5.7404 -2.01089,11.81511 -17.1473,13.43835 -5.35388,0.57416 -5.71088,0.4836 -7.60973,-1.9304 z"
       id="path2112" /><path
       style="fill:#0074ff;fill-opacity:1;stroke-width:0.922392"
       d="m 379.52218,366.23136 c -2.7352,-2.7352 -2.91358,-6.31033 -0.43836,-8.78555 2.03395,-2.03395 19.91488,-11.08779 21.89789,-11.08779 2.07622,0 5.79295,4.35901 5.79295,6.79401 0,1.42145 -1.11098,3.20074 -2.98105,4.7743 -3.23644,2.72328 -18.61293,10.56908 -20.71368,10.56908 -0.71153,0 -2.31252,-1.01882 -3.55775,-2.26405 z"
       id="path2114" /><path
       style="fill:#0074ff;fill-opacity:1;stroke-width:0.230598"
       d="m 245.58674,470.65179 c -23.43086,-0.91297 -48.90986,-3.11805 -54.78711,-4.74155 -0.89887,-0.2483 -3.47377,-0.65935 -5.72201,-0.91345 -4.2136,-0.47623 -6.05309,-0.79918 -6.47013,-1.13594 -0.31745,-0.25634 -2.15836,-0.60648 -5.54378,-1.05441 -1.63811,-0.21674 -3.12266,-0.54934 -3.63843,-0.81515 -0.47919,-0.24696 -2.37752,-0.70827 -4.21852,-1.02513 -1.841,-0.31686 -3.66687,-0.74138 -4.05749,-0.94337 -0.39062,-0.202 -1.88362,-0.6158 -3.31779,-0.91957 -2.4338,-0.51549 -16.92627,-5.22248 -19.24996,-6.25216 -0.57503,-0.25481 -1.45706,-0.53949 -1.96008,-0.63262 -0.50303,-0.0931 -1.7034,-0.51498 -2.66751,-0.93745 -0.9641,-0.42247 -2.52064,-0.99434 -3.45896,-1.27083 -0.93833,-0.27649 -1.96548,-0.74555 -2.28255,-1.04236 -0.32838,-0.3074 -1.24863,-0.70772 -2.13825,-0.93018 -0.90325,-0.22586 -1.90724,-0.66509 -2.38116,-1.04171 -0.45067,-0.35815 -1.38633,-0.81599 -2.07924,-1.01742 -0.69291,-0.20144 -1.47597,-0.58238 -1.74013,-0.84654 -0.26416,-0.26416 -1.09356,-0.72063 -1.8431,-1.01437 -2.5373,-0.99436 -3.96486,-2.21202 -4.83225,-4.12175 -0.53482,-1.17749 -0.56448,-3.3605 -0.0656,-4.82474 0.49638,-1.45679 2.33264,-3.42902 3.91212,-4.20179 1.79487,-0.87815 2.93451,-0.72829 6.67091,0.87717 1.64878,0.70845 3.41291,1.39869 3.92029,1.53386 0.57445,0.15305 1.00948,0.43772 1.15299,0.75449 0.15694,0.34639 0.70874,0.66966 1.72936,1.01314 0.82439,0.27744 2.95165,1.15273 4.72726,1.94508 3.65324,1.63025 5.48918,2.31122 6.23114,2.31122 0.28012,0 0.769,0.20428 1.08641,0.45395 0.3174,0.24968 1.7198,0.76466 3.11643,1.14441 1.39663,0.37974 2.88906,0.89097 3.31651,1.13606 0.42744,0.24508 1.86675,0.67402 3.19845,0.9532 1.3317,0.27917 2.99201,0.74545 3.68957,1.03617 1.76777,0.73675 6.00551,1.89997 8.07092,2.21539 0.95122,0.14527 2.24833,0.50967 2.88248,0.80979 0.6565,0.31071 2.3942,0.75268 4.03546,1.0264 1.58536,0.2644 3.66165,0.72331 4.61398,1.0198 0.95233,0.29649 3.13148,0.70952 4.84256,0.91785 3.56996,0.43465 3.81634,0.48126 5.53232,1.04651 0.69756,0.22978 2.30598,0.53624 3.57427,0.68103 6.32058,0.72153 8.29621,0.98735 8.82096,1.18686 0.86569,0.32914 3.15866,0.61393 8.12798,1.00953 5.02458,0.39999 7.85178,0.7412 8.64717,1.04361 1.05915,0.40269 8.22574,0.74322 24.44363,1.16149 10.04326,0.25902 16.46643,0.60923 16.83858,0.91808 0.14141,0.11737 0.78957,0.32758 1.44035,0.46715 2.02818,0.43497 3.89584,2.13935 4.41103,4.02542 0.3036,1.11147 0.32189,3.58238 0.0356,4.81629 -0.27553,1.18771 -1.81964,2.74471 -3.58597,3.6159 -1.82432,0.8998 -3.03459,0.95206 -13.02878,0.56264 z"
       id="path2116" /><path
       style="fill:#0074ff;fill-opacity:1;stroke-width:0.230598"
       d="m 325.28195,464.21233 c -1.17165,-0.43506 -3.0021,-2.25272 -3.72063,-3.69464 -0.99877,-2.00426 -0.68379,-4.90834 0.73398,-6.76713 1.4089,-1.84716 3.77582,-2.77652 9.18915,-3.60805 2.02926,-0.31171 4.15653,-0.77179 4.72726,-1.02241 1.44445,-0.63429 4.45825,-1.0262 6.98073,-0.90779 3.29882,0.15487 4.83309,1.16004 6.22518,4.07839 0.87841,1.8415 0.89041,2.98235 0.049,4.66217 -1.31021,2.61585 -2.46551,3.55972 -5.18401,4.23527 -0.82439,0.20486 -1.99658,0.58069 -2.60486,0.83518 -0.60829,0.25448 -2.52801,0.66721 -4.26606,0.91718 -3.23545,0.46532 -4.53447,0.77618 -5.08873,1.21777 -0.51206,0.40797 -5.97497,0.44991 -7.04104,0.0541 z"
       id="path2118" /><path
       style="fill:#0074ff;fill-opacity:1;stroke-width:0.230598"
       d="m 382.17421,447.9131 c -0.97448,-0.28199 -3.21214,-2.34987 -3.40627,-3.14782 -0.0848,-0.34857 -0.37926,-0.80784 -0.65436,-1.0206 -0.78748,-0.60904 -0.71546,-2.88339 0.14692,-4.63964 0.91751,-1.8685 2.94723,-4.01019 4.09291,-4.31869 0.49515,-0.13333 0.90027,-0.38149 0.90027,-0.55145 0,-0.30209 0.17293,-0.38787 2.30898,-1.14534 0.57238,-0.20297 3.06284,-1.47656 5.53435,-2.8302 5.14781,-2.81943 7.60569,-3.94567 9.02927,-4.13736 2.1114,-0.2843 5.41366,1.64036 6.4383,3.75245 0.42637,0.87886 0.54164,1.5044 0.54797,2.9737 0.007,1.67216 -0.0621,1.97424 -0.68379,2.98112 -0.8741,1.41569 -3.95108,3.92818 -6.68733,5.46052 -1.14146,0.63923 -2.38669,1.44144 -2.76718,1.78268 -0.38049,0.34125 -1.10687,0.75939 -1.61418,0.9292 -0.50732,0.16982 -2.47893,1.01033 -4.38136,1.86782 -5.01938,2.26238 -6.70028,2.65253 -8.8045,2.04361 z"
       id="path2120" /><path
       style="fill:#96a1c3;fill-opacity:1;stroke-width:0.461196"
       d="m 254.74663,255.77399 c -0.0845,-0.23079 -6.2761,-0.65832 -13.759,-0.95009 -23.58942,-0.91976 -24.6644,-0.98074 -25.11211,-1.42445 -0.24097,-0.23883 -2.25222,-0.43423 -4.46944,-0.43423 -2.21722,0 -4.15957,-0.20754 -4.31634,-0.4612 -0.15677,-0.25365 -1.82932,-0.46119 -3.71679,-0.46119 -1.98037,0 -3.43174,-0.19505 -3.43174,-0.4612 0,-0.26316 -1.37452,-0.46119 -3.20115,-0.46119 -1.76064,0 -3.32942,-0.20754 -3.48619,-0.4612 -0.15677,-0.25366 -1.28676,-0.46119 -2.51108,-0.46119 -1.22432,0 -2.82049,-0.31003 -3.54705,-0.68896 -0.72655,-0.37892 -2.08702,-0.69023 -3.02327,-0.69179 -0.93624,-10e-4 -1.83053,-0.21038 -1.9873,-0.46404 -0.15677,-0.25366 -1.19446,-0.46119 -2.30598,-0.46119 -1.11152,0 -2.14921,-0.20754 -2.30598,-0.4612 -0.15677,-0.25366 -1.19446,-0.46119 -2.30598,-0.46119 -1.11152,0 -2.14921,-0.20754 -2.30598,-0.4612 -0.15677,-0.25366 -1.10294,-0.4612 -2.1026,-0.4612 -0.99966,0 -1.81756,-0.20753 -1.81756,-0.46119 0,-0.25366 -0.93392,-0.4612 -2.07538,-0.4612 -1.14146,0 -2.07538,-0.20754 -2.07538,-0.46119 0,-0.25366 -0.74121,-0.4612 -1.64713,-0.4612 -0.90592,0 -1.95844,-0.31131 -2.33892,-0.69179 -0.38049,-0.38049 -1.18357,-0.6918 -1.78462,-0.6918 -0.60106,0 -1.2211,-0.20753 -1.37787,-0.46119 -0.15677,-0.25366 -0.88315,-0.4612 -1.61418,-0.4612 -0.73103,0 -1.45742,-0.20754 -1.61419,-0.46119 -0.15677,-0.25366 -0.88315,-0.4612 -1.61418,-0.4612 -0.73103,0 -1.45742,-0.20754 -1.61419,-0.4612 -0.15677,-0.25365 -0.77938,-0.46119 -1.38358,-0.46119 -0.60421,0 -1.22682,-0.20754 -1.38359,-0.4612 -0.15677,-0.25365 -0.79163,-0.46119 -1.41081,-0.46119 -0.61917,0 -1.12577,-0.20754 -1.12577,-0.4612 0,-0.25366 -0.62261,-0.46119 -1.38358,-0.46119 -0.76098,0 -1.38359,-0.20754 -1.38359,-0.4612 0,-0.25366 -0.22806,-0.4612 -0.5068,-0.4612 -0.27873,0 -1.26454,-0.33246 -2.19068,-0.73881 -0.92613,-0.40635 -2.20273,-0.94941 -2.83687,-1.2068 -0.63415,-0.25739 -1.51337,-0.65131 -1.95383,-0.87537 -0.44045,-0.22406 -1.21872,-0.40739 -1.72948,-0.40739 -0.51076,0 -0.92865,-0.20753 -0.92865,-0.46119 0,-0.25366 -0.41508,-0.4612 -0.92239,-0.4612 -0.50732,0 -0.92239,-0.20754 -0.92239,-0.46119 0,-0.25366 -0.4299,-0.4612 -0.95534,-0.4612 -0.52543,0 -1.24461,-0.25942 -1.59818,-0.57649 -1.59966,-1.43455 -2.06534,-1.72949 -2.73077,-1.72949 -0.39119,0 -0.71126,-0.20754 -0.71126,-0.46119 0,-0.25366 -0.36319,-0.46581 -0.80709,-0.47145 -0.4439,-0.006 -1.32594,-0.41611 -1.96008,-0.91214 -0.63415,-0.49604 -1.41241,-0.9065 -1.72949,-0.91214 -0.31707,-0.006 -0.57649,-0.21779 -0.57649,-0.47145 0,-0.25366 -0.30061,-0.46119 -0.66803,-0.46119 -0.36742,0 -1.22788,-0.51885 -1.91213,-1.15299 -0.68425,-0.63415 -1.47928,-1.15299 -1.76673,-1.15299 -0.28745,0 -0.82181,-0.41508 -1.18746,-0.92239 -0.36565,-0.50732 -0.93031,-0.9224 -1.2548,-0.9224 -0.32449,0 -0.58998,-0.20753 -0.58998,-0.46119 0,-0.25366 -0.28953,-0.4612 -0.64339,-0.4612 -0.35386,0 -1.13213,-0.53458 -1.72948,-1.18796 -1.23247,-1.34806 -3.81027,-3.83899 -5.35216,-5.17179 -0.57073,-0.49334 -1.03769,-1.13205 -1.03769,-1.41937 0,-0.28732 -0.20754,-0.5224 -0.4612,-0.5224 -0.25366,0 -0.46119,-0.27217 -0.46119,-0.60483 0,-0.33266 -0.41508,-1.05036 -0.92239,-1.5949 -0.50732,-0.54454 -0.9224,-1.31006 -0.9224,-1.70115 0,-0.39109 -0.20753,-0.71108 -0.46119,-0.71108 -0.25366,0 -0.4678,-0.36319 -0.47587,-0.80709 -0.008,-0.4439 -0.31937,-1.20995 -0.69179,-1.70233 -0.43855,-0.57982 -0.67713,-1.98142 -0.67713,-3.97802 v -3.08278 l 2.23336,2.13324 c 2.98754,2.8536 4.05745,3.73584 6.76998,5.58247 1.26278,0.85967 2.39973,1.68245 2.52656,1.82839 0.7768,0.89387 7.91082,5.05576 14.18596,8.27588 0.99439,0.51028 5.09087,2.34619 6.33725,2.84016 1.79341,0.71077 6.46749,2.78783 7.25758,3.22511 0.44045,0.24378 1.20647,0.44324 1.70226,0.44324 0.49579,0 1.0297,0.20753 1.18647,0.46119 0.15677,0.25366 0.8954,0.4612 1.6414,0.4612 0.746,0 1.35637,0.20754 1.35637,0.46119 0,0.25366 0.5066,0.4612 1.12577,0.4612 0.61917,0 1.25404,0.20754 1.41081,0.46119 0.15677,0.25366 0.69067,0.4612 1.18646,0.4612 0.49579,0 1.26181,0.19537 1.70227,0.43416 0.44046,0.23879 2.04606,0.77488 3.56801,1.19131 1.52194,0.41643 3.12754,0.94745 3.56801,1.18003 0.44046,0.23258 1.31024,0.42287 1.93286,0.42287 0.62262,0 1.26029,0.20754 1.41706,0.4612 0.15677,0.25365 1.09069,0.46119 2.07538,0.46119 0.98469,0 1.91862,0.20754 2.07538,0.4612 0.15677,0.25366 1.10295,0.46119 2.10261,0.46119 0.99966,0 1.81756,0.20754 1.81756,0.4612 0,0.25366 0.78864,0.4612 1.75254,0.4612 0.9639,0 1.94971,0.19074 2.19068,0.42387 0.43427,0.42014 4.47959,1.34605 7.58667,1.73647 0.8878,0.11156 2.02926,0.38666 2.53658,0.61135 0.88914,0.39379 2.66525,0.65881 8.07093,1.20427 1.39511,0.14078 2.73373,0.44523 2.97471,0.67657 0.24097,0.23134 1.73337,0.42062 3.31645,0.42062 1.58307,0 3.00658,0.20754 3.16335,0.46119 0.15677,0.25366 1.84296,0.4612 3.7471,0.4612 1.90414,0 3.82134,0.19228 4.26046,0.42728 0.85803,0.45921 6.88669,1.14673 17.5888,2.00586 8.63894,0.6935 56.06938,0.69134 64.79801,-0.003 11.07775,-0.88115 16.95228,-1.53882 17.8006,-1.99283 0.44945,-0.24055 2.27135,-0.43735 4.04866,-0.43735 1.77731,0 3.35973,-0.20754 3.5165,-0.4612 0.15677,-0.25365 1.58028,-0.46119 3.16336,-0.46119 1.58307,0 3.07547,-0.19005 3.31644,-0.42234 0.24098,-0.23229 1.68337,-0.52996 3.20532,-0.6615 1.52194,-0.13154 3.96051,-0.46033 5.41905,-0.73065 1.45853,-0.27032 3.74145,-0.68389 5.07315,-0.91906 4.11855,-0.72728 6.77793,-1.37153 7.7013,-1.86571 0.48701,-0.26064 1.50949,-0.47389 2.27217,-0.47389 0.76268,0 1.51495,-0.20754 1.67172,-0.4612 0.15677,-0.25366 1.09069,-0.4612 2.07538,-0.4612 0.98469,0 1.91861,-0.20753 2.07538,-0.46119 0.15677,-0.25366 0.98693,-0.4612 1.84479,-0.4612 0.85786,0 1.68801,-0.20754 1.84478,-0.46119 0.15677,-0.25366 0.78186,-0.4612 1.3891,-0.4612 0.60725,0 1.5808,-0.18549 2.16347,-0.41221 0.58266,-0.22671 2.30462,-0.78818 3.82656,-1.24771 1.52195,-0.45953 2.96434,-1.00042 3.20531,-1.20198 0.24098,-0.20156 0.90323,-0.36647 1.47167,-0.36647 0.56844,0 1.1618,-0.20754 1.31857,-0.4612 0.15677,-0.25365 0.77938,-0.46119 1.38358,-0.46119 0.60421,0 1.22682,-0.20754 1.38359,-0.4612 0.15677,-0.25365 0.77939,-0.46119 1.38359,-0.46119 0.6042,0 1.22682,-0.20754 1.38359,-0.4612 0.15677,-0.25366 0.69067,-0.46119 1.18646,-0.46119 0.49579,0 1.26181,-0.1901 1.70227,-0.42243 1.59978,-0.84385 4.18055,-1.88355 4.6754,-1.88355 0.27874,0 0.50679,-0.20754 0.50679,-0.4612 0,-0.25366 0.31413,-0.46119 0.69805,-0.46119 0.38393,0 1.05843,-0.18333 1.49889,-0.40739 0.44046,-0.22406 1.31968,-0.61228 1.95382,-0.8627 1.5917,-0.62855 8.47972,-3.98109 8.76272,-4.265 0.12683,-0.12723 0.85322,-0.54198 1.61419,-0.92166 0.76097,-0.37967 1.48735,-0.79442 1.61418,-0.92165 0.12683,-0.12723 1.16452,-0.73464 2.30598,-1.34979 2.27558,-1.22634 5.21529,-3.29445 5.45748,-3.8394 0.0846,-0.19024 0.39587,-0.34663 0.6918,-0.34753 0.59172,-0.002 3.35945,-2.22774 7.10593,-5.71491 1.42582,-1.32714 2.44903,-1.99241 2.48267,-1.61419 0.16395,1.84336 -0.19324,5.77275 -0.55948,6.15468 -0.23108,0.24098 -0.42013,0.91548 -0.42013,1.49889 0,0.58341 -0.20754,1.06075 -0.4612,1.06075 -0.25366,0 -0.4612,0.41508 -0.4612,0.92239 0,0.50732 -0.20493,0.92239 -0.45541,0.92239 -0.25047,0 -0.99003,0.8469 -1.64346,1.882 -1.41341,2.239 -7.83855,8.68148 -9.58465,9.61053 -0.67648,0.35994 -1.22996,0.8269 -1.22996,1.03769 0,0.2108 -0.3113,0.38327 -0.69179,0.38327 -0.38049,0 -0.69179,0.15687 -0.69179,0.34861 0,0.19174 -0.62262,0.62421 -1.38359,0.96105 -0.76097,0.33684 -1.38359,0.90634 -1.38359,1.26557 0,0.35922 -0.41507,0.65314 -0.92239,0.65314 -0.50732,0 -0.92239,0.20753 -0.92239,0.46119 0,0.25366 -0.41508,0.4612 -0.92239,0.4612 -0.50732,0 -0.92239,0.20754 -0.92239,0.46119 0,0.25366 -0.31131,0.4612 -0.6918,0.4612 -0.38048,0 -0.69179,0.20754 -0.69179,0.46119 0,0.25366 -0.41508,0.4612 -0.92239,0.4612 -0.50732,0 -0.92239,0.20754 -0.92239,0.4612 0,0.25365 -0.29449,0.46119 -0.65442,0.46119 -0.823,0 -3.48952,1.49612 -3.49343,1.96008 -0.002,0.19025 -0.41799,0.3459 -0.92531,0.3459 -0.50731,0 -0.92239,0.20754 -0.92239,0.4612 0,0.25365 -0.51884,0.46119 -1.15299,0.46119 -0.63414,0 -1.15299,0.20754 -1.15299,0.4612 0,0.25366 -0.50659,0.46119 -1.12577,0.46119 -0.61917,0 -1.25404,0.20754 -1.4108,0.4612 -0.15677,0.25366 -0.68787,0.4612 -1.18021,0.4612 -0.49235,0 -0.89518,0.20753 -0.89518,0.46119 0,0.25366 -0.51884,0.4612 -1.15299,0.4612 -0.63414,0 -1.15298,0.20754 -1.15298,0.46119 0,0.25366 -0.40026,0.4612 -0.88945,0.4612 -0.4892,0 -1.20076,0.31131 -1.58124,0.69179 -0.38049,0.38049 -1.12452,0.6918 -1.65339,0.6918 -0.52888,0 -1.42574,0.23994 -1.99303,0.5332 -2.22141,1.14836 -2.66543,1.31158 -3.56801,1.31158 -0.5142,0 -1.29528,0.18731 -1.73574,0.41624 -0.44046,0.22894 -1.73475,0.67207 -2.87621,0.98474 -1.14146,0.31267 -2.80177,0.76874 -3.68957,1.01348 -0.8878,0.24475 -2.20173,0.73554 -2.91985,1.09065 -0.71811,0.35511 -1.91146,0.64565 -2.65187,0.64565 -0.74042,0 -1.34622,0.20754 -1.34622,0.4612 0,0.25365 -0.8179,0.46119 -1.81756,0.46119 -0.99966,0 -1.94583,0.20754 -2.1026,0.4612 -0.15677,0.25366 -1.10294,0.46119 -2.1026,0.46119 -0.99966,0 -1.81756,0.20754 -1.81756,0.4612 0,0.25366 -0.92168,0.4612 -2.04816,0.4612 -1.12649,0 -2.17643,0.20753 -2.3332,0.46119 -0.15677,0.25366 -1.19446,0.4612 -2.30598,0.4612 -1.11152,0 -2.13088,0.17787 -2.26524,0.39527 -0.13436,0.21741 -1.4214,0.51677 -2.86009,0.66526 -1.43869,0.14848 -2.83528,0.48945 -3.10353,0.75771 -0.26826,0.26825 -1.58769,0.48774 -2.93208,0.48774 -1.34439,0 -2.44434,0.20753 -2.44434,0.46119 0,0.26317 -1.37451,0.4612 -3.20115,0.4612 -1.76063,0 -3.32942,0.20754 -3.48619,0.46119 -0.15677,0.25366 -1.81707,0.4612 -3.68956,0.4612 -1.87249,0 -3.5328,0.20754 -3.68957,0.46119 -0.15677,0.25366 -2.09912,0.4612 -4.31634,0.4612 -2.21722,0 -4.22846,0.1954 -4.46944,0.43423 -0.45416,0.45011 -2.37284,0.55951 -25.11211,1.43188 -7.4829,0.28707 -13.67445,0.71102 -13.759,0.94211 -0.20051,0.54799 -5.48733,0.54851 -5.68809,4.6e-4 z"
       id="path2191" /><path
       style="fill:#ccd3eb;fill-opacity:1;stroke-width:0.652229"
       d="m 221.43185,235.78194 c -3.22854,-0.23227 -8.21809,-0.77069 -11.0879,-1.19647 -2.86981,-0.4258 -7.56586,-1.09393 -10.43567,-1.48475 -7.91575,-1.07798 -23.1505,-3.72436 -26.08917,-4.53187 -1.43491,-0.39429 -4.36994,-1.11187 -6.52229,-1.59461 -10.87821,-2.43982 -26.17969,-7.43046 -35.87262,-11.7 -5.63044,-2.4801 -14.17628,-6.8949 -15.37874,-7.9447 -0.56634,-0.49443 -1.27984,-0.89897 -1.58556,-0.89897 -0.88979,0 -9.52059,-6.82461 -12.52829,-9.90647 l -2.751202,-2.81903 1.706672,-3.44857 c 1.93562,-3.91116 12.11403,-14.00673 16.26056,-16.12821 1.3841,-0.70814 2.92041,-1.66596 3.41403,-2.12848 0.49362,-0.46253 4.31364,-2.45628 8.48893,-4.43056 4.17529,-1.97429 8.17631,-3.91748 8.89115,-4.31822 0.71483,-0.40073 2.26074,-0.94535 3.43535,-1.21027 2.07882,-0.46885 2.17656,-0.39231 3.67336,2.87637 3.88165,8.47672 4.66056,10.04433 6.20563,12.48924 0.90679,1.4349 2.2095,3.63618 2.8949,4.89172 3.75181,6.87269 15.63484,20.17245 26.7018,29.88526 2.09781,1.84112 6.23615,4.68289 6.81947,4.68289 0.23348,0 1.17434,0.70006 2.09078,1.55569 1.41222,1.31849 5.20284,3.50788 13.7325,7.93163 3.20088,1.66007 10.59342,4.86173 11.22561,4.86173 0.35392,0 1.56836,0.41835 2.69875,0.92966 1.13039,0.51133 3.4494,1.24508 5.15335,1.63058 6.63065,1.5001 8.96815,2.12156 8.96815,2.38429 0,0.30083 -1.40608,0.24827 -10.10955,-0.37788 z"
       id="path2473" /><path
       style="fill:#ccd3eb;fill-opacity:1;stroke-width:0.652229"
       d="m 284.04586,233.75869 c 11.93198,-2.89102 15.9757,-4.41035 28.75861,-10.80535 17.85602,-8.93298 34.94193,-24.47722 45.71783,-41.59267 2.77659,-4.4101 9.68806,-18.29945 10.73068,-21.56449 0.45821,-1.43491 1.03151,-2.90242 1.27398,-3.26115 0.24249,-0.35872 0.64484,-1.60611 0.89413,-2.77197 0.5124,-2.39634 0.76773,-2.4785 3.75168,-1.20724 1.17803,0.50188 3.46264,1.43552 5.07691,2.07476 3.83354,1.51805 4.56561,2.5079 4.56561,6.17336 0,2.32421 0.3771,3.44815 1.59943,4.76706 0.87968,0.9492 1.95261,1.72582 2.38429,1.72582 0.43168,0 1.69308,0.69025 2.80312,1.5339 1.11004,0.84365 2.9165,1.99643 4.01436,2.56173 3.97096,2.04471 12.64574,9.6635 15.69737,13.78651 4.63204,6.25831 4.67645,6.56987 1.39014,9.75253 -3.49864,3.38828 -5.95838,5.41671 -9.65093,7.95863 -2.87443,1.97874 -13.36325,8.10606 -13.87605,8.10606 -0.14555,0 -2.58063,1.08557 -5.41128,2.41238 -8.09666,3.79515 -22.92062,8.76893 -32.54026,10.91802 -2.15236,0.48085 -6.40816,1.49517 -9.45733,2.25406 -11.22793,2.79442 -12.03793,2.93162 -32.61146,5.52388 -18.53017,2.33481 -25.05178,3.03072 -27.8447,2.97127 -2.03118,-0.0432 -1.53283,-0.28332 2.73387,-1.3171 z"
       id="path2475" /></g></svg>
